<?xml version="1.0" encoding="iso-8859-1"?>
<!-- Uploaded to: SVG Repo, www.svgrepo.com, Generator: SVG Repo Mixer Tools -->
<svg fill="#000000" height="800px" width="800px" version="1.1" id="Layer_1" xmlns="http://www.w3.org/2000/svg" xmlns:xlink="http://www.w3.org/1999/xlink" 
	 viewBox="0 0 503.577 503.577" xml:space="preserve">
<g>
	<g>
		<path d="M483.467,90.722c-12.8-12.8-29.867-20.267-48-21.333c-1.067-18.133-8.533-35.2-21.333-48
			c-13.867-12.8-32-20.267-52.267-20.267c-23.467,0-46.933,9.6-64,26.667c-7.467,7.467-13.867,17.067-18.133,28.8
			c-76.8-19.2-156.8,4.267-213.333,59.733c-88.533,88.533-88.533,231.467,0,320c43.733,43.733,102.4,66.133,160,66.133
			c57.6,0,116.267-22.4,161.067-64c55.467-56.533,77.867-137.6,58.667-214.4c11.733-5.333,22.4-10.667,30.933-18.133
			C510.133,172.855,512.267,121.655,483.467,90.722z M357.6,407.522c-72.533,71.467-189.867,71.467-261.333,0
			c-71.467-72.533-71.467-189.867,0-261.333c44.8-45.867,110.933-64,172.8-50.133c-8.533,52.267,0,110.933,1.067,120.533
			c1.067,8.533,7.467,16,17.067,17.067c1.067,0,32,4.267,68.267,4.267c19.2,0,35.2-1.067,50.133-3.2
			C421.6,295.522,403.467,361.655,357.6,407.522z M445.067,176.055c-12.8,12.8-45.867,20.267-89.6,20.267
			c-18.133,0-34.133-1.067-45.867-2.133c-4.267-43.733-5.333-114.133,18.133-135.467c9.6-9.6,21.333-14.933,34.133-14.933
			c8.533,0,17.067,3.2,22.4,8.533c8.533,8.533,10.667,21.333,5.333,35.2c-3.2,7.467-2.133,16,4.267,22.4
			c5.333,5.333,14.933,7.467,22.4,4.267c5.333-2.133,9.6-3.2,14.933-3.2c5.333,0,13.867,2.133,20.267,8.533
			C465.333,133.388,462.133,158.988,445.067,176.055z"/>
	</g>
</g>
</svg>