<?xml version="1.0" encoding="iso-8859-1"?>
<!-- Uploaded to: SVG Repo, www.svgrepo.com, Generator: SVG Repo Mixer Tools -->
<!DOCTYPE svg PUBLIC "-//W3C//DTD SVG 1.1//EN" "http://www.w3.org/Graphics/SVG/1.1/DTD/svg11.dtd">
<svg fill="#000000" version="1.1" id="Capa_1" xmlns="http://www.w3.org/2000/svg" xmlns:xlink="http://www.w3.org/1999/xlink" 
	 width="800px" height="800px" viewBox="0 0 72.103 72.103"
	 xml:space="preserve">
<g>
	<g>
		<path d="M57.617,50.754l-1.368,1.369l-4.731-4.731c9.32-11.418,8.803-28.237-1.848-38.889C38.326-2.835,19.859-2.835,8.518,8.507
			C-2.84,19.861-2.838,38.317,8.515,49.668c10.639,10.635,27.466,11.164,38.89,1.848l4.727,4.725l-1.376,1.375l14.489,14.487
			l6.857-6.859L57.617,50.754z M45.058,48.457c-9.899,8.146-24.548,7.717-33.796-1.53c-9.841-9.834-9.838-25.846,0-35.673
			c9.829-9.829,25.833-9.832,35.66-0.004c9.259,9.256,9.689,23.901,1.532,33.811L45.058,48.457z"/>
		<path d="M32.402,18.231c-4.722-1.366-9.437,1.191-11.003,5.136c-1.697,4.268,1.033,9.78-0.11,12.408
			c-1.624,3.74-6.328,9.468,0.11,13.284c5.951,3.52,10.251-2.02,13.365-6.982c2.379-3.801,4.856-7.657,5.828-11.665
			C41.345,27.304,41.743,20.939,32.402,18.231z"/>
		<path d="M23.342,18.446c2.288,0,3.052-1.754,3.052-3.917c0-2.17-1.859-3.927-4.147-3.927c-2.288,0-4.142,1.756-4.142,3.927
			C18.103,16.692,21.057,18.446,23.342,18.446z"/>
		<path d="M30.721,16.746c1.894,0,3.431-2.597,3.431-4.681c0-2.082-1.538-2.859-3.431-2.859c-1.897,0-3.431,0.778-3.431,2.859
			C27.291,14.148,28.824,16.746,30.721,16.746z"/>
		<path d="M40.377,16.564c1.07-1.314,0.5-2.594-0.691-3.57c-1.194-0.974-2.563-1.271-3.633,0.047
			c-1.07,1.313-1.435,3.74-0.242,4.709C37.008,18.725,39.31,17.881,40.377,16.564z"/>
		<path d="M44.569,17.57c-0.965-1.063-2.185-1.532-3.357-0.469c-1.17,1.055-1.85,3.237-0.885,4.309
			c0.965,1.07,3.207,0.61,4.38-0.453C45.879,19.901,45.535,18.64,44.569,17.57z"/>
		<path d="M44.707,22.322c-1.193,0.395-2.389,1.756-2.033,2.844c0.354,1.082,2.136,1.475,3.324,1.087
			c1.19-0.396,1.35-1.42,0.994-2.507C46.639,22.663,45.897,21.929,44.707,22.322z"/>
	</g>
</g>
</svg>