<?xml version="1.0" encoding="iso-8859-1"?>
<!-- Uploaded to: SVG Repo, www.svgrepo.com, Generator: SVG Repo Mixer Tools -->
<!DOCTYPE svg PUBLIC "-//W3C//DTD SVG 1.1//EN" "http://www.w3.org/Graphics/SVG/1.1/DTD/svg11.dtd">
<svg fill="#000000" version="1.1" id="Capa_1" xmlns="http://www.w3.org/2000/svg" xmlns:xlink="http://www.w3.org/1999/xlink" 
	 width="800px" height="800px" viewBox="0 0 929.957 929.957"
	 xml:space="preserve">
<g>
	<path d="M63.083,472.414v14.174v31.729v30.592h30.592h291.282l-2.19,119.541l-0.304,16.52l13.646,9.311l51.009,34.811l2.892,12.674
		l-5.036-3.697l-19.73-14.484l-18.46,16.072l-14.8,12.887l-10.022,8.725l-0.464,13.279l-4.324,123.752l-1.105,31.66h31.679h114.465
		h31.208l-0.622-31.201l-6.971-349.846h290.455h30.592v-30.592V247.785v-23.023l-22.124-6.374l-17.929-5.164l13.885-2.03
		l26.168-3.824v-26.446v-74.58V75.752h-30.592H536.399l-0.912-45.77L534.89,0h-29.989h-79.844H395.02l-0.55,30.031l-0.839,45.721
		H93.676H63.083v30.592v31.1v25l24.5,4.979l46.434,9.436l-42.115,2.445l-28.819,1.674v28.867v188.65v38.95l37.841-9.229l20.093-4.9
		l-47.12,39.933L63.083,472.414z M407.747,899.363l4.324-123.75l14.8-12.887l71.233,52.293l-23.828-104.434l-60.922-41.574
		l2.202-120.102h99.673l6.982,350.453H407.747z M425.057,30.592h79.844l0.899,45.16h-81.571L425.057,30.592z M93.676,486.588
		l55.813-47.299l90.247-13.259l-96.875-39.528l-49.185,11.996V209.846l175.632-10.197v-26.513L93.676,137.445v-31.1h299.395h30.597
		h82.742h30.598h299.274v74.58l-153.979,22.503l153.979,44.357v270.533H545.216h-30.598h-98.503h-30.597H93.676V486.588z"/>
</g>
</svg>