<?xml version="1.0" encoding="iso-8859-1"?>
<!-- Uploaded to: SVG Repo, www.svgrepo.com, Generator: SVG Repo Mixer Tools -->
<svg height="800px" width="800px" version="1.1" id="Layer_1" xmlns="http://www.w3.org/2000/svg" xmlns:xlink="http://www.w3.org/1999/xlink" 
	 viewBox="0 0 512 512" xml:space="preserve">
<path style="fill:#BDFDFF;" d="M488.727,186.182h-35.202c-2.464-6.963-5.298-13.798-8.496-20.474l24.902-24.902
	c9.089-9.089,9.089-23.824,0-32.912l-65.823-65.826c-4.364-4.364-10.283-6.817-16.457-6.817c-6.173,0-12.093,2.451-16.455,6.817
	L346.292,66.97c-6.676-3.196-13.511-6.032-20.474-8.496V23.273C325.818,10.42,315.398,0,302.545,0H256h-46.545
	c-7.23,0-13.689,3.297-17.959,8.47c-1.898,2.299-3.362,4.968-4.268,7.883c-0.68,2.185-1.046,4.51-1.046,6.92v35.201
	c-5.222,1.848-10.372,3.905-15.436,6.167c-1.688,0.754-3.367,1.53-5.036,2.329l-24.903-24.902c-0.568-0.568-1.157-1.1-1.767-1.598
	c-1.219-0.995-2.515-1.846-3.866-2.555c-0.675-0.355-1.365-0.675-2.065-0.959c-2.101-0.852-4.301-1.384-6.527-1.598
	c-6.676-0.639-13.576,1.598-18.686,6.71l-65.826,65.825c-4.366,4.364-6.817,10.285-6.817,16.457c0,0.771,0.039,1.539,0.113,2.299
	c0.15,1.522,0.451,3.019,0.892,4.468c0.22,0.725,0.476,1.438,0.765,2.138c0.869,2.098,2.045,4.068,3.499,5.843
	c0.484,0.591,1.001,1.162,1.547,1.707l24.903,24.902c-0.799,1.669-1.576,3.348-2.33,5.036c-1.508,3.376-2.925,6.791-4.248,10.238
	c-0.662,1.724-1.302,3.457-1.918,5.198H23.273c-7.23,0-13.689,3.297-17.959,8.47c-1.898,2.299-3.362,4.968-4.268,7.883
	C0.366,204.719,0,207.045,0,209.455v93.091c0,12.853,10.42,23.273,23.273,23.273h35.204c2.464,6.963,5.298,13.798,8.495,20.474
	l-24.903,24.902c-3.274,3.274-5.471,7.422-6.366,11.895c-0.298,1.491-0.451,3.018-0.451,4.561c0,3.859,0.957,7.616,2.742,10.96
	c1.071,2.005,2.439,3.86,4.076,5.497l65.828,65.825c0.568,0.568,1.157,1.1,1.767,1.598c8.532,6.959,20.846,6.959,29.378,0
	c0.61-0.496,1.199-1.029,1.767-1.598l24.903-24.902c6.675,3.196,13.509,6.032,20.471,8.496v35.201
	c0,12.853,10.42,23.273,23.273,23.273H256h46.545c12.853,0,23.273-10.42,23.273-23.273v-35.201c6.963-2.464,13.799-5.3,20.474-8.496
	l24.903,24.902c9.087,9.087,23.824,9.087,32.912,0l65.825-65.825c9.089-9.089,9.089-23.824,0-32.912l-24.902-24.902
	c3.198-6.676,6.034-13.512,8.496-20.474h35.201c12.853,0,23.273-10.42,23.273-23.273v-93.091
	C512,196.602,501.58,186.182,488.727,186.182z"/>
<path style="fill:#2633D8;" d="M337.411,248.242h-73.654v-73.657c0-0.836-0.048-1.66-0.135-2.473
	c-0.023-0.225-0.071-0.442-0.101-0.666c-0.079-0.59-0.164-1.178-0.289-1.752c-0.048-0.223-0.115-0.441-0.169-0.661
	c-0.141-0.568-0.287-1.134-0.469-1.686c-0.062-0.189-0.138-0.371-0.205-0.557c-0.206-0.579-0.425-1.151-0.675-1.708
	c-0.064-0.141-0.137-0.279-0.203-0.419c-0.282-0.594-0.582-1.179-0.912-1.745c-0.054-0.093-0.112-0.185-0.168-0.276
	c-0.365-0.605-0.752-1.196-1.17-1.764c-0.036-0.05-0.074-0.099-0.11-0.149c-0.452-0.604-0.928-1.187-1.432-1.742
	c-0.016-0.017-0.033-0.034-0.047-0.051c-0.531-0.58-1.088-1.136-1.673-1.66c-0.506-0.453-1.032-0.884-1.576-1.292
	c-0.022-0.016-0.04-0.031-0.062-0.047c-0.52-0.389-1.06-0.756-1.61-1.1c-0.064-0.039-0.127-0.076-0.189-0.115
	c-0.518-0.318-1.05-0.614-1.592-0.891c-0.121-0.062-0.245-0.118-0.366-0.177c-0.5-0.244-1.005-0.473-1.524-0.681
	c-0.196-0.078-0.396-0.144-0.594-0.217c-0.464-0.171-0.931-0.337-1.406-0.479c-0.287-0.084-0.58-0.15-0.869-0.223
	c-0.41-0.104-0.818-0.214-1.235-0.296c-0.411-0.081-0.832-0.132-1.251-0.191c-0.316-0.045-0.63-0.104-0.951-0.137
	c-0.752-0.073-1.516-0.115-2.288-0.115c-12.853,0-23.273,10.42-23.273,23.273v96.928c0,12.853,10.42,23.273,23.273,23.273h15.515
	h81.411c12.853,0,23.273-10.42,23.273-23.273S350.264,248.242,337.411,248.242z"/>
<g>
	<path style="fill:#C3C3C7;" d="M263.233,169.695c0.124,0.574,0.209,1.162,0.289,1.752
		C263.443,170.857,263.356,170.271,263.233,169.695z"/>
	<path style="fill:#C3C3C7;" d="M262.595,167.348c0.18,0.551,0.327,1.119,0.469,1.686
		C262.924,168.465,262.775,167.9,262.595,167.348z"/>
	<path style="fill:#C3C3C7;" d="M257.719,158.987c0.504,0.555,0.981,1.139,1.432,1.742
		C258.701,160.126,258.225,159.544,257.719,158.987z"/>
	<path style="fill:#C3C3C7;" d="M259.261,160.878c0.417,0.568,0.805,1.159,1.17,1.764
		C260.068,162.036,259.679,161.448,259.261,160.878z"/>
	<path style="fill:#C3C3C7;" d="M257.673,158.936c-0.531-0.582-1.086-1.136-1.673-1.66l0,0
		C256.585,157.8,257.142,158.355,257.673,158.936z"/>
	<path style="fill:#C3C3C7;" d="M261.716,165.083c0.25,0.557,0.47,1.13,0.676,1.708
		C262.184,166.212,261.964,165.641,261.716,165.083z"/>
	<path style="fill:#C3C3C7;" d="M263.623,172.113c0.087,0.813,0.135,1.637,0.135,2.473
		C263.758,173.75,263.709,172.926,263.623,172.113z"/>
	<path style="fill:#C3C3C7;" d="M260.6,162.918c0.33,0.566,0.63,1.151,0.912,1.745C261.23,164.07,260.931,163.486,260.6,162.918z"/>
</g>
<path style="fill:#9BC9FF;" d="M23.273,186.182C10.42,186.182,0,196.602,0,209.455v93.091c0,12.853,10.42,23.273,23.273,23.273
	h35.202c2.464,6.963,5.298,13.798,8.496,20.474l-24.903,24.902c-4.366,4.366-6.817,10.285-6.817,16.457
	c0,6.173,2.451,12.093,6.817,16.457l65.828,65.825c9.087,9.087,23.824,9.087,32.912,0l24.903-24.902
	c6.675,3.196,13.509,6.032,20.471,8.496v35.201c0,12.853,10.42,23.273,23.273,23.273H256V294.788h-15.515
	c-12.853,0-23.273-10.42-23.273-23.273v-96.929c0-12.853,10.42-23.273,23.273-23.273c0.773,0,1.534,0.042,2.288,0.115
	c0.321,0.033,0.635,0.092,0.951,0.137c0.419,0.059,0.839,0.11,1.251,0.191c0.419,0.082,0.824,0.192,1.235,0.296
	c0.29,0.074,0.583,0.138,0.87,0.223c0.478,0.141,0.942,0.309,1.406,0.479c0.199,0.073,0.399,0.138,0.594,0.217
	c0.518,0.206,1.024,0.439,1.524,0.681c0.121,0.059,0.245,0.115,0.366,0.177c0.545,0.276,1.072,0.574,1.592,0.891
	c0.062,0.039,0.126,0.076,0.189,0.115c0.552,0.344,1.089,0.712,1.61,1.102c0.022,0.016,0.04,0.031,0.062,0.047
	c0.546,0.41,1.069,0.839,1.576,1.292V0h-46.545c-12.853,0-23.273,10.42-23.273,23.273v35.201c-6.963,2.464-13.798,5.3-20.472,8.496
	l-24.903-24.902c-9.087-9.089-23.824-9.089-32.912,0l-65.826,65.825c-4.366,4.364-6.817,10.285-6.817,16.457
	c0,6.172,2.451,12.091,6.817,16.457l24.903,24.902c-3.198,6.676-6.032,13.511-8.496,20.474H23.273z"/>
<g>
	<path style="fill:#A9A8AE;" d="M250.97,153.83c0.543,0.276,1.074,0.574,1.592,0.891C252.042,154.404,251.513,154.106,250.97,153.83
		z"/>
	<path style="fill:#A9A8AE;" d="M256,157.276c-0.506-0.453-1.03-0.884-1.576-1.292C254.968,156.391,255.494,156.822,256,157.276
		L256,157.276z"/>
	<path style="fill:#A9A8AE;" d="M242.773,151.429c0.321,0.033,0.635,0.092,0.951,0.137
		C243.408,151.521,243.094,151.46,242.773,151.429z"/>
	<path style="fill:#A9A8AE;" d="M249.079,152.972c0.518,0.208,1.024,0.438,1.524,0.681
		C250.103,153.411,249.597,153.18,249.079,152.972z"/>
	<path style="fill:#A9A8AE;" d="M252.751,154.835c0.551,0.346,1.091,0.712,1.61,1.102
		C253.84,155.547,253.305,155.179,252.751,154.835z"/>
	<path style="fill:#A9A8AE;" d="M247.079,152.275c0.476,0.143,0.942,0.309,1.406,0.479
		C248.021,152.585,247.557,152.416,247.079,152.275z"/>
	<path style="fill:#A9A8AE;" d="M244.975,151.757c0.416,0.082,0.825,0.192,1.235,0.296
		C245.799,151.949,245.392,151.837,244.975,151.757z"/>
</g>
</svg>